# xmcd
#
# Track frame offsets:
#	150
#	14183
#	37981
#	49654
#	64047
#	81354
#	95387
#	119185
#	130858
#	145251
#
# Disc length: 2167
#
# Revision: 1
# Processed by: cddbd v1.5.2PL0 Copyright (c) Steve Scherf et al.
# Submitted via: kJams Pro (development) 1.0patch49.13
#
DISCID=8f08750a
DTITLE=Alan Jackson - Karaoke Songs of Alan Jackson
DYEAR=1900
DGENRE=Country
TTITLE0=Alan Jackson - Don't Rock The Jukebox
TTITLE1=Alan Jackson - Where Were You
TTITLE2=Alan Jackson - Chattahoochee
TTITLE3=Alan Jackson - Chasin' The Neon Rainbow
TTITLE4=Alan Jackson - Midnight In Montgomery
TTITLE5=Alan Jackson - Don't Rock The Jukebox (Vocal)
TTITLE6=Alan Jackson - Where Were You (Vocal)
TTITLE7=Alan Jackson - Chattahoochee (Vocal)
TTITLE8=Alan Jackson - Chasin' The Neon Rainbow (Vocal)
TTITLE9=Alan Jackson - Midnight In Montgomery (Vocal)
EXTD=
EXTT0=
EXTT1=
EXTT2=
EXTT3=
EXTT4=
EXTT5=
EXTT6=
EXTT7=
EXTT8=
EXTT9=
PLAYORDER=
